<svg width="32" height="32" viewBox="0 0 32 32" fill="none" xmlns="http://www.w3.org/2000/svg">
<rect y="3.05176e-05" width="32" height="32" rx="16" fill="#FAFAFA"/>
<path fill-rule="evenodd" clip-rule="evenodd" d="M16 3.05176e-05C7.16344 3.05176e-05 0 7.16347 0 16C0 24.8366 7.16344 32 16 32C24.8366 32 32 24.8366 32 16C32 7.16347 24.8366 3.05176e-05 16 3.05176e-05ZM17.668 16.7028V25.4077H14.0663V16.7032H12.2669V13.7034H14.0663V11.9024C14.0663 9.45523 15.0824 8.00003 17.9691 8.00003H20.3723V11.0001H18.8701C17.7464 11.0001 17.672 11.4193 17.672 12.2017L17.668 13.7031H20.3893L20.0709 16.7028H17.668Z" fill="#E01A24"/>
</svg>
