<svg width="32" height="32" viewBox="0 0 32 32" fill="none" xmlns="http://www.w3.org/2000/svg">
<rect y="3.05176e-05" width="32" height="32" rx="16" fill="#FAFAFA"/>
<path fill-rule="evenodd" clip-rule="evenodd" d="M16 3.05176e-05C7.16344 3.05176e-05 0 7.16347 0 16C0 24.8366 7.16344 32 16 32C24.8366 32 32 24.8366 32 16C32 7.16347 24.8366 3.05176e-05 16 3.05176e-05ZM12.4823 7.51826C13.3925 7.47684 13.6834 7.46671 16.0009 7.46671H15.9983C18.3165 7.46671 18.6063 7.47684 19.5165 7.51826C20.425 7.55986 21.0454 7.70369 21.5894 7.91471C22.1512 8.13249 22.6259 8.42405 23.1006 8.89872C23.5752 9.37304 23.8668 9.84913 24.0855 10.4104C24.2952 10.953 24.4392 11.5731 24.4819 12.4815C24.5228 13.3917 24.5335 13.6826 24.5335 16.0001C24.5335 18.3177 24.5228 18.6078 24.4819 19.518C24.4392 20.4261 24.2952 21.0464 24.0855 21.5892C23.8668 22.1502 23.5752 22.6263 23.1006 23.1006C22.6264 23.5753 22.151 23.8676 21.59 24.0855C21.047 24.2966 20.4262 24.4404 19.5178 24.482C18.6075 24.5234 18.3176 24.5336 15.9999 24.5336C13.6825 24.5336 13.3918 24.5234 12.4816 24.482C11.5733 24.4404 10.9531 24.2966 10.4101 24.0855C9.84922 23.8676 9.37313 23.5753 8.89899 23.1006C8.4245 22.6263 8.13294 22.1502 7.9148 21.589C7.70395 21.0464 7.56013 20.4263 7.51835 19.5179C7.47711 18.6076 7.4668 18.3177 7.4668 16.0001C7.4668 13.6826 7.47746 13.3916 7.51818 12.4813C7.55906 11.5732 7.70307 10.953 7.91462 10.4102C8.13329 9.84913 8.42485 9.37304 8.89952 8.89872C9.37384 8.42423 9.84993 8.13267 10.4112 7.91471C10.9538 7.70369 11.5739 7.55986 12.4823 7.51826Z" fill="#E01A24"/>
<path fill-rule="evenodd" clip-rule="evenodd" d="M15.236 9.00445C15.3846 9.00422 15.5445 9.00429 15.7171 9.00437L16.0015 9.00445C18.2799 9.00445 18.55 9.01263 19.4497 9.05352C20.2817 9.09156 20.7333 9.23059 21.0341 9.34739C21.4323 9.50206 21.7162 9.68695 22.0147 9.98562C22.3134 10.2843 22.4983 10.5687 22.6533 10.967C22.7701 11.2674 22.9093 11.719 22.9472 12.551C22.988 13.4505 22.9969 13.7208 22.9969 15.9981C22.9969 18.2755 22.988 18.5457 22.9472 19.4453C22.9091 20.2773 22.7701 20.7288 22.6533 21.0293C22.4986 21.4275 22.3134 21.7111 22.0147 22.0096C21.716 22.3082 21.4325 22.4931 21.0341 22.6478C20.7336 22.7651 20.2817 22.9038 19.4497 22.9418C18.5501 22.9827 18.2799 22.9916 16.0015 22.9916C13.7229 22.9916 13.4528 22.9827 12.5533 22.9418C11.7213 22.9034 11.2697 22.7644 10.9687 22.6476C10.5705 22.4929 10.2861 22.3081 9.98738 22.0094C9.68871 21.7107 9.50382 21.427 9.3488 21.0286C9.232 20.7281 9.09279 20.2766 9.05493 19.4446C9.01404 18.545 9.00586 18.2748 9.00586 15.996C9.00586 13.7172 9.01404 13.4484 9.05493 12.5488C9.09297 11.7168 9.232 11.2653 9.3488 10.9645C9.50346 10.5662 9.68871 10.2818 9.98738 9.98313C10.2861 9.68446 10.5705 9.49957 10.9687 9.34455C11.2695 9.22721 11.7213 9.08854 12.5533 9.05032C13.3405 9.01476 13.6456 9.0041 15.236 9.00232V9.00445ZM20.5566 10.4214C19.9912 10.4214 19.5326 10.8795 19.5326 11.445C19.5326 12.0104 19.9912 12.469 20.5566 12.469C21.1219 12.469 21.5806 12.0104 21.5806 11.445C21.5806 10.8797 21.1219 10.421 20.5566 10.421V10.4214ZM11.6191 16.0001C11.6191 13.58 13.5812 11.6179 16.0012 11.6178C18.4213 11.6178 20.383 13.58 20.383 16.0001C20.383 18.4202 18.4215 20.3814 16.0014 20.3814C13.5813 20.3814 11.6191 18.4202 11.6191 16.0001Z" fill="#E01A24"/>
<path d="M16.0007 13.1556C17.5716 13.1556 18.8452 14.4291 18.8452 16.0001C18.8452 17.571 17.5716 18.8446 16.0007 18.8446C14.4297 18.8446 13.1562 17.571 13.1562 16.0001C13.1562 14.4291 14.4297 13.1556 16.0007 13.1556Z" fill="#E01A24"/>
</svg>
