<svg width="32" height="32" viewBox="0 0 32 32" fill="none" xmlns="http://www.w3.org/2000/svg">
<rect y="3.05176e-05" width="32" height="32" rx="16" fill="#FAFAFA"/>
<path fill-rule="evenodd" clip-rule="evenodd" d="M16 3.05176e-05C7.16344 3.05176e-05 0 7.16347 0 16C0 24.8366 7.16344 32 16 32C24.8366 32 32 24.8366 32 16C32 7.16347 24.8366 3.05176e-05 16 3.05176e-05ZM7.68099 13.2519H11.3069V24.1464H7.68099V13.2519ZM11.546 9.88183C11.5224 8.81363 10.7586 8.00003 9.51815 8.00003C8.27774 8.00003 7.4668 8.81363 7.4668 9.88183C7.4668 10.9279 8.25377 11.7649 9.47108 11.7649H9.49426C10.7586 11.7649 11.546 10.9279 11.546 9.88183ZM20.2085 12.9961C22.5945 12.9961 24.3833 14.5536 24.3833 17.8999L24.3832 24.1464H20.7574V18.3179C20.7574 16.8539 20.2327 15.8549 18.9201 15.8549C17.9183 15.8549 17.3217 16.5283 17.0596 17.1788C16.9637 17.4119 16.9402 17.7367 16.9402 18.0623V24.1467H13.3138C13.3138 24.1467 13.3616 14.2745 13.3138 13.2522H16.9402V14.7953C17.4214 14.0535 18.2834 12.9961 20.2085 12.9961Z" fill="#E01A24"/>
</svg>
