<svg width="40" height="40" viewBox="0 0 40 40" fill="none" xmlns="http://www.w3.org/2000/svg">
<path d="M19.2704 5.44313C19.3423 5.31247 19.448 5.20352 19.5764 5.12763C19.7048 5.05175 19.8512 5.01172 20.0004 5.01172C20.1495 5.01172 20.296 5.05175 20.4244 5.12763C20.5528 5.20352 20.6584 5.31247 20.7304 5.44313L25.6504 14.7831C25.7677 14.9994 25.9315 15.187 26.1299 15.3325C26.3283 15.478 26.5565 15.5777 26.798 15.6246C27.0396 15.6714 27.2885 15.6642 27.5269 15.6034C27.7654 15.5427 27.9874 15.4299 28.177 15.2731L35.3054 9.16646C35.4422 9.05516 35.6108 8.99015 35.787 8.98079C35.9631 8.97143 36.1377 9.0182 36.2855 9.11437C36.4334 9.21054 36.5469 9.35114 36.6098 9.51594C36.6727 9.68075 36.6816 9.86125 36.6354 10.0315L31.912 27.1081C31.8156 27.4576 31.6079 27.7661 31.3204 27.9868C31.0329 28.2076 30.6812 28.3286 30.3187 28.3315H9.68371C9.32094 28.3289 8.9689 28.2081 8.68103 27.9873C8.39317 27.7665 8.18521 27.4578 8.08872 27.1081L3.36705 10.0331C3.3208 9.86291 3.32975 9.68241 3.39262 9.51761C3.45548 9.35281 3.56902 9.2122 3.71688 9.11604C3.86475 9.01987 4.03931 8.9731 4.21545 8.98246C4.39159 8.99182 4.56021 9.05683 4.69705 9.16813L11.8237 15.2748C12.0134 15.4315 12.2354 15.5443 12.4738 15.6051C12.7122 15.6659 12.9612 15.6731 13.2027 15.6262C13.4443 15.5794 13.6724 15.4796 13.8709 15.3342C14.0693 15.1887 14.2331 15.0011 14.3504 14.7848L19.2704 5.44313Z" stroke="url(#paint0_linear_83_64)" stroke-width="3.33333" stroke-linecap="round" stroke-linejoin="round"/>
<path d="M8.33301 35H31.6663" stroke="url(#paint1_linear_83_64)" stroke-width="3.33333" stroke-linecap="round" stroke-linejoin="round"/>
<defs>
<linearGradient id="paint0_linear_83_64" x1="3.25457" y1="5.01172" x2="38.3839" y2="8.14946" gradientUnits="userSpaceOnUse">
<stop stop-color="#E01A24"/>
<stop offset="1" stop-color="#7A0E14"/>
</linearGradient>
<linearGradient id="paint1_linear_83_64" x1="8.27467" y1="35" x2="16.2036" y2="46.563" gradientUnits="userSpaceOnUse">
<stop stop-color="#E01A24"/>
<stop offset="1" stop-color="#7A0E14"/>
</linearGradient>
</defs>
</svg>
