<svg width="40" height="40" viewBox="0 0 40 40" fill="none" xmlns="http://www.w3.org/2000/svg">
<path d="M18.3333 24.9999H21.6667C22.5507 24.9999 23.3986 24.6487 24.0237 24.0236C24.6488 23.3985 25 22.5506 25 21.6666C25 20.7825 24.6488 19.9347 24.0237 19.3096C23.3986 18.6844 22.5507 18.3333 21.6667 18.3333H16.6667C15.6667 18.3333 14.8333 18.6666 14.3333 19.3333L5 28.3333" stroke="url(#paint0_linear_83_1079)" stroke-width="3.33333" stroke-linecap="round" stroke-linejoin="round"/>
<path d="M11.667 35L14.3337 32.6666C14.8337 32 15.667 31.6666 16.667 31.6666H23.3337C25.167 31.6666 26.8337 31 28.0003 29.6666L35.667 22.3333C36.3101 21.7255 36.6855 20.8871 36.7105 20.0026C36.7355 19.118 36.4081 18.2598 35.8003 17.6166C35.1925 16.9735 34.3542 16.5981 33.4696 16.5731C32.5851 16.5481 31.7268 16.8755 31.0837 17.4833L24.0837 23.9833" stroke="url(#paint1_linear_83_1079)" stroke-width="3.33333" stroke-linecap="round" stroke-linejoin="round"/>
<path d="M3.33301 26.6667L13.333 36.6667" stroke="url(#paint2_linear_83_1079)" stroke-width="3.33333" stroke-linecap="round" stroke-linejoin="round"/>
<path d="M26.6663 19.8334C29.3357 19.8334 31.4997 17.6695 31.4997 15.0001C31.4997 12.3307 29.3357 10.1667 26.6663 10.1667C23.997 10.1667 21.833 12.3307 21.833 15.0001C21.833 17.6695 23.997 19.8334 26.6663 19.8334Z" stroke="url(#paint3_linear_83_1079)" stroke-width="3.33333" stroke-linecap="round" stroke-linejoin="round"/>
<path d="M10 13.3333C12.7614 13.3333 15 11.0947 15 8.33325C15 5.57183 12.7614 3.33325 10 3.33325C7.23858 3.33325 5 5.57183 5 8.33325C5 11.0947 7.23858 13.3333 10 13.3333Z" stroke="url(#paint4_linear_83_1079)" stroke-width="3.33333" stroke-linecap="round" stroke-linejoin="round"/>
<defs>
<linearGradient id="paint0_linear_83_1079" x1="4.95" y1="18.3333" x2="25.8731" y2="20.9486" gradientUnits="userSpaceOnUse">
<stop stop-color="#E01A24"/>
<stop offset="1" stop-color="#7A0E14"/>
</linearGradient>
<linearGradient id="paint1_linear_83_1079" x1="11.6044" y1="16.5718" x2="38.0239" y2="18.8159" gradientUnits="userSpaceOnUse">
<stop stop-color="#E01A24"/>
<stop offset="1" stop-color="#7A0E14"/>
</linearGradient>
<linearGradient id="paint2_linear_83_1079" x1="3.30801" y1="26.6667" x2="13.8917" y2="27.3282" gradientUnits="userSpaceOnUse">
<stop stop-color="#E01A24"/>
<stop offset="1" stop-color="#7A0E14"/>
</linearGradient>
<linearGradient id="paint3_linear_83_1079" x1="21.8088" y1="10.1667" x2="32.0397" y2="10.8062" gradientUnits="userSpaceOnUse">
<stop stop-color="#E01A24"/>
<stop offset="1" stop-color="#7A0E14"/>
</linearGradient>
<linearGradient id="paint4_linear_83_1079" x1="4.975" y1="3.33325" x2="15.5587" y2="3.99473" gradientUnits="userSpaceOnUse">
<stop stop-color="#E01A24"/>
<stop offset="1" stop-color="#7A0E14"/>
</linearGradient>
</defs>
</svg>
