<svg width="433" height="86" viewBox="0 0 433 86" fill="none" xmlns="http://www.w3.org/2000/svg">
<mask id="path-1-inside-1_83_63" fill="white">
<path d="M0 4C0 1.79086 1.79086 0 4 0H429C431.209 0 433 1.79086 433 4V82C433 84.2091 431.209 86 429 86H4C1.79087 86 0 84.2091 0 82V4Z"/>
</mask>
<path d="M-2 4C-2 0.686292 0.686292 -2 4 -2H427C430.314 -2 433 0.686292 433 4C433 2.89543 431.209 2 429 2H4C2.89543 2 2 2.89543 2 4H-2ZM433 86H0H433ZM4 86C0.686292 86 -2 83.3137 -2 80V4C-2 0.686292 0.686292 -2 4 -2V2C2.89543 2 2 2.89543 2 4V82C2 84.2091 2.89543 86 4 86ZM433 0V86V0Z" fill="url(#paint0_linear_83_63)" mask="url(#path-1-inside-1_83_63)"/>
<defs>
<linearGradient id="paint0_linear_83_63" x1="-1.0825" y1="1.01331e-06" x2="14.1747" y2="73.7991" gradientUnits="userSpaceOnUse">
<stop stop-color="#E01A24"/>
<stop offset="1" stop-color="#7A0E14" stop-opacity="0"/>
</linearGradient>
</defs>
</svg>
