<svg width="41" height="40" viewBox="0 0 41 40" fill="none" xmlns="http://www.w3.org/2000/svg">
<path d="M17.1663 21.6667C21.7687 21.6667 25.4997 17.9357 25.4997 13.3333C25.4997 8.73096 21.7687 5 17.1663 5C12.564 5 8.83301 8.73096 8.83301 13.3333C8.83301 17.9357 12.564 21.6667 17.1663 21.6667Z" stroke="white" stroke-width="3.33333" stroke-linecap="round" stroke-linejoin="round"/>
<path d="M3.83301 35C3.8332 32.9016 4.32866 30.8328 5.2791 28.962C6.22954 27.0912 7.60812 25.4712 9.30271 24.2336C10.9973 22.996 12.9601 22.1759 15.0314 21.8399C17.1027 21.5039 19.2241 21.6615 21.223 22.3" stroke="white" stroke-width="3.33333" stroke-linecap="round" stroke-linejoin="round"/>
<path d="M30.5 35C33.2614 35 35.5 32.7614 35.5 30C35.5 27.2386 33.2614 25 30.5 25C27.7386 25 25.5 27.2386 25.5 30C25.5 32.7614 27.7386 35 30.5 35Z" stroke="white" stroke-width="3.33333" stroke-linecap="round" stroke-linejoin="round"/>
<path d="M37.1667 36.6667L34 33.5" stroke="white" stroke-width="3.33333" stroke-linecap="round" stroke-linejoin="round"/>
</svg>
