<svg width="41" height="40" viewBox="0 0 41 40" fill="none" xmlns="http://www.w3.org/2000/svg">
<path d="M6.91699 14.3667C6.67372 13.2709 6.71108 12.1314 7.02558 11.0539C7.34009 9.97639 7.92157 8.99574 8.7161 8.20287C9.51064 7.41 10.4925 6.83057 11.5707 6.51832C12.6488 6.20607 13.7884 6.17111 14.8837 6.41667C15.4865 5.47383 16.317 4.69793 17.2986 4.16048C18.2802 3.62302 19.3812 3.34131 20.5003 3.34131C21.6194 3.34131 22.7205 3.62302 23.7021 4.16048C24.6836 4.69793 25.5141 5.47383 26.117 6.41667C27.2139 6.17004 28.3554 6.20485 29.4353 6.51786C30.5152 6.83086 31.4984 7.4119 32.2934 8.20692C33.0884 9.00194 33.6695 9.98512 33.9825 11.065C34.2955 12.1449 34.3303 13.2864 34.0837 14.3833C35.0265 14.9862 35.8024 15.8167 36.3398 16.7982C36.8773 17.7798 37.159 18.8809 37.159 20C37.159 21.1191 36.8773 22.2202 36.3398 23.2017C35.8024 24.1833 35.0265 25.0138 34.0837 25.6167C34.3292 26.7119 34.2942 27.8515 33.982 28.9297C33.6697 30.0078 33.0903 30.9897 32.2975 31.7842C31.5046 32.5788 30.5239 33.1602 29.4464 33.4747C28.3689 33.7892 27.2294 33.8266 26.1337 33.5833C25.5316 34.5298 24.7005 35.309 23.7172 35.8489C22.7339 36.3887 21.6304 36.6718 20.5087 36.6718C19.3869 36.6718 18.2834 36.3887 17.3001 35.8489C16.3169 35.309 15.4857 34.5298 14.8837 33.5833C13.7884 33.8289 12.6488 33.7939 11.5707 33.4817C10.4925 33.1694 9.51064 32.59 8.7161 31.7971C7.92157 31.0043 7.34009 30.0236 7.02558 28.9461C6.71108 27.8686 6.67372 26.7291 6.91699 25.6333C5.96692 25.0321 5.18434 24.2003 4.64207 23.2154C4.09979 22.2304 3.81543 21.1243 3.81543 20C3.81543 18.8757 4.09979 17.7696 4.64207 16.7846C5.18434 15.7997 5.96692 14.9679 6.91699 14.3667Z" stroke="white" stroke-width="3.33333" stroke-linecap="round" stroke-linejoin="round"/>
<path d="M15.5 20L18.8333 23.3333L25.5 16.6666" stroke="white" stroke-width="3.33333" stroke-linecap="round" stroke-linejoin="round"/>
</svg>
