<svg width="41" height="40" viewBox="0 0 41 40" fill="none" xmlns="http://www.w3.org/2000/svg">
<path d="M30.4997 35C30.4997 31.4637 29.0949 28.0724 26.5944 25.5719C24.0939 23.0714 20.7026 21.6666 17.1663 21.6666C13.6301 21.6666 10.2387 23.0714 7.73825 25.5719C5.23777 28.0724 3.83301 31.4637 3.83301 35" stroke="white" stroke-width="3.33333" stroke-linecap="round" stroke-linejoin="round"/>
<path d="M17.1663 21.6667C21.7687 21.6667 25.4997 17.9357 25.4997 13.3333C25.4997 8.73096 21.7687 5 17.1663 5C12.564 5 8.83301 8.73096 8.83301 13.3333C8.83301 17.9357 12.564 21.6667 17.1663 21.6667Z" stroke="white" stroke-width="3.33333" stroke-linecap="round" stroke-linejoin="round"/>
<path d="M37.1667 33.3333C37.1667 27.7166 33.8333 22.5 30.5 20C31.5957 19.1779 32.4719 18.0984 33.0509 16.8571C33.63 15.6157 33.8942 14.2507 33.82 12.883C33.7459 11.5152 33.3357 10.1868 32.6258 9.01529C31.9159 7.84381 30.9282 6.8654 29.75 6.16663" stroke="white" stroke-width="3.33333" stroke-linecap="round" stroke-linejoin="round"/>
</svg>
